# xmcd
#
# Track frame offsets:
#	150
#	15087
#	30138
#	49239
#	64380
#	80992
#	95837
#	109881
#	124679
#	138186
#
# Disc length: 2036 seconds
#
# Revision: 3
# Processed by: cddbd v1.5.2PL0 Copyright (c) Steve Scherf et al.
# Submitted via: EasyCDDAExtractor 15.3.0.1
#
DISCID=8007f20a
DTITLE=Sherrié Austin - Followin' A Feelin'
DYEAR=2001
DGENRE=Country
TTITLE0=Followin' A Feelin'
TTITLE1=Jolene
TTITLE2=Goin', Goin', Gone
TTITLE3=Somethin' Missin' In The Kissin'
TTITLE4=In The Meantime
TTITLE5=My Brilliant Mistake
TTITLE6=In Our Own Sweet Time
TTITLE7=Love Melts Even The Coldest Hearts
TTITLE8=Back Where I Belong
TTITLE9=Time, Love and Money
EXTD=http://www.sherrieaustin.com
EXTT0=
EXTT1=
EXTT2=
EXTT3=
EXTT4=
EXTT5=
EXTT6=
EXTT7=
EXTT8=
EXTT9=
PLAYORDER=
